<?xml version="1.0" encoding="utf-8"?>
<!-- Generator: Adobe Illustrator 19.2.1, SVG Export Plug-In . SVG Version: 6.00 Build 0)  -->
<svg version="1.1" id="layer" xmlns="http://www.w3.org/2000/svg" xmlns:xlink="http://www.w3.org/1999/xlink" x="0px" y="0px"
	 viewBox="0 0 652 652" style="enable-background:new 0 0 652 652;" xml:space="preserve">
<style type="text/css">
	.st0{fill:#F64060;}
</style>
<path class="st0" d="M377.1,328.4c-0.8,1.2-1.4,2.1-1.9,2.9c-5.4,7.7-11.4,14.7-19.6,19.6c-11,6.5-22.9,9.2-35.4,6.5
	c-6.4-1.4-12.3-5-18.3-7.8c-1.4-0.7-2.1-0.7-3.4,0.1c-5.2,3-10.2,6.4-15.6,8.8c-9.7,4.2-19.9,6.5-30.4,3.8
	c-6.6-1.7-12.3-5.5-17.5-9.9c-3.7-3.2-3.9-3.2-7.6-0.1c-6.7,5.5-14.4,9-22.4,12c-10,3.6-20.3,5.9-30.9,6.9
	c-12.9,1.3-24.8-0.9-33.5-11.5c-7-8.5-8.9-18.3-4.6-28.5c4.7-11.2,10.1-22.1,15.2-33.1c2.6-5.7,5.3-11.5,7.9-17.3
	c0.5-1.1,0.7-2.3,0.7-3.5c0.1-2.2,0.5-4.5-2-5.8c-2.5-1.3-5.5-1.1-7.4,1.3c-2.3,3-4.4,6.2-6.1,9.5c-5.8,11.1-11.3,22.2-17,33.4
	c-4.2,8.4-8.4,16.7-12.6,25.1c-4,7.9-11.6,10.9-19.8,7.8c-2.8-1-4.5-3.1-5-6.2c-0.7-4.4,0.8-8.4,2.3-12.3
	c3.4-8.6,6.9-17.2,10.3-25.9c1.8-4.6,3.7-9.3,5.4-13.9c1.2-3.3,1.6-6.7,0.2-9.9c-1.1-2.5-3.2-4.3-6.2-4c-3.3,0.3-5.8,2-7.1,5
	c-4.3,10.7-8.5,21.5-12.8,32.2c-5.1,12.9-10.1,25.8-15.4,38.5c-2,4.7-4.9,9-9.9,11c-2.5,1-5.4,1.7-8.1,1.7
	c-8.5,0.1-15.8-2.7-20.9-9.9c-4-5.7-5-12.1-3-18.9c1.8-6.3,3.6-12.5,5.4-18.7c1.8-5.9,3.7-11.8,5.5-17.7c1.7-5.5,3.3-11,5.2-16.4
	c3.7-10.7,6.6-21.7,12.4-31.5c4-6.7,10.4-10.3,17.8-12.6c7.7-2.3,14.3,0.6,20.8,3.9c2.5,1.2,5,2.6,7.5,3.6c3.6,1.5,6.8,0.6,9.7-1.8
	c2.4-1.9,4.7-3.8,6.9-6c5.4-5.3,17.2-6.3,22.9-0.1c1.3,1.4,2.9,2.6,4.3,3.9c3,2.7,4.2,2.9,7.7,1c8.3-4.7,16.8-4,25.2-1
	c4.9,1.7,7.8,5.9,9.7,10.8c2.7,7.2,1.6,14.2-1.2,21c-5.1,12.5-10.6,24.8-15.5,37.4c-2.9,7.4-5.4,15.1-7.5,22.8
	c-0.9,3.1-0.9,6.9-0.1,10c1.2,4.8,5.6,6.4,10,6.9c6.7,0.9,13.4-0.4,19.8-2.2c5.5-1.5,11-3.4,16.3-5.3c2.6-0.9,5-2.4,7.5-3.6
	c2.1-1.1,2.3-2.6,1.2-4.6c-2.3-4-4.7-8-6.7-12.2c-4.3-8.8-7.8-17.9-6.8-28c0.8-8.8,4-16.5,12.1-21.1c12-6.8,21.7-5,30.6,5.3
	c7.6,8.8,10.1,19.5,6.9,30.9c-1.8,6.4-4.5,12.5-7,18.7c-0.7,1.7-0.3,2.8,0.8,3.8c5.1,4.7,10.8,8.4,17.2,11c2.4,1,5,1.7,7.5,2.2
	c5.5,1.1,10.6-0.2,15.2-3.3c2.2-1.5,2.2-2.9,0.7-4.9c-10.5-14.4-14.7-30.3-11.5-47.9c1.2-6.6,4.2-12.8,11.3-14.7
	c4.4-1.2,9.3-1.1,13.8-0.5c7.4,0.9,14.1,3.9,18.6,10.2c5.4,7.6,6.8,16,4.5,25.1c-1.7,6.5-5.1,12.1-8.9,17.5
	c-1.5,2.1-1.6,4.1,0.5,5.6c3.1,2.2,6.3,4.6,9.9,5.9c7.7,2.8,15.7,2.5,23.5,0c8.5-2.7,14.5-8.4,17.9-16.7c4.1-10,4.1-20.5,3.9-31
	c-0.2-8.2-0.5-16.4-0.7-24.7c-0.1-2.9-0.6-3.1-3.4-2.5c-7.4,1.5-14.8,2.8-22.2,4.2c-2.3,0.4-4.7,0.7-7,1.1c-5.1,0.9-9.3-1.2-9.6-7.1
	c-0.3-6-1.2-12-1.8-17.9c0-0.3-0.1-0.7-0.1-1c-0.3-7,1.4-10.9,9.8-10.6c8.7,0.3,17.4,0.6,26.2,1.1c4.3,0.2,5.8-0.9,6.1-5.1
	c0.2-3.3,0.3-6.6,0.5-9.9c0.3-5,1.4-6.1,6.5-5.9c3,0.1,6,0.6,9,1.3c4.1,0.9,6.3,3.8,6.6,8c0.2,3.4,0.1,6.8,0.1,10.2
	c0,2.4,0.7,3.7,3.4,4c7.8,0.8,15.5,1.9,23.2,2.8c3.7,0.4,5.7,1.9,6.2,4.6c0.9,4.7-0.2,7.9-3.7,9.2c-5,1.8-10.1,3.2-15.3,4.4
	c-3.6,0.9-7.3,1.3-11,1.9c-2.5,0.4-3.8,1.7-3.8,4.5c0.1,13.6-0.2,27.3,0.2,40.9c0.2,7.2,1.3,14.3,4.3,21c2.5,5.4,6.7,7.5,12.5,6.6
	c8.6-1.4,16.4-4.5,23.3-9.9c3.8-3,6.3-6.7,6.5-11.8c0.3-9.3,0.8-18.6,1.4-27.9c0.2-2.7,0.5-5.5,1.4-8c0.5-1.4,2.3-3.2,3.6-3.3
	c7-0.2,14.1-0.3,21,0.3c4.4,0.4,7.4,4.5,7.2,9.1c-0.3,6.5-1.2,13-1.8,19.5c-0.8,8-1.5,16-2.3,24c-0.9,8.1,5.6,12.1,12,12.2
	c5.4,0.1,8.5-1.9,10.8-7.6c2.4-5.9,3.8-12.3,4.8-18.6c1.4-8.9,2.1-18,3.2-27c0.4-3.7,2.7-6.5,5.6-7.1c3.3-0.7,7.6,0.6,8.7,3.6
	c0.9,2.5,0.7,5.6,0.4,8.4c-1.2,10.3-2.8,20.5-3.8,30.7c-0.6,6.3,2.9,10.8,9.1,12.7c3.1,0.9,6.2,1.7,9.4,2c5.6,0.6,9.5-3.4,10.7-9.7
	c1-5.3,1.1-10.8,1.6-16.2c0.6-6.4,0.6-12.9,1.7-19.2c1.6-9.4,7.7-17.8,18.9-20.6c6.7-1.6,13.5-1.8,20.2-1.1
	c10.2,1.2,20.9,8.1,24.2,19.9c2.5,8.9,1.5,17.6-1.4,26.2c-3.4,10-9.6,17.7-18.2,23.6c-0.8,0.5-1.3,1.6-1.9,2.4
	c1.1,0.5,2.2,1.4,3.3,1.4c10.3-0.2,20.1-2.5,29-7.9c2-1.2,4.2-2.1,6.3-3.2c2-0.9,3.1,0.2,2.6,1.9c-0.9,2.8-2,5.8-3.8,8.1
	c-7.6,9.7-18.1,14.3-30.1,15.1c-5.1,0.3-10.3-0.3-15.5-0.6c-3.9-0.2-7.8-0.6-11.7-0.8c-2-0.1-3.1,0.7-3.6,2.7
	c-3.1,12.8-4.7,25.8-6.3,38.8c-1,8.2-2.5,16.4-4.5,24.4c-1.1,4.4-4.5,7.4-9.2,8.1c-2.8,0.5-4.9-0.8-5.8-3.4
	c-0.8-2.2-1.5-4.5-1.7-6.9c-0.9-11.4-0.5-22.9,1-34.2c0.8-5.8,1.3-11.6,1.9-17.4c0.5-4,1.1-8.1,1.5-12.1c0.3-3.3-0.4-4-3.6-4.7
	c-6.5-1.3-12.9-2.6-19.4-4c-4.4-1-7.8,0.6-10.8,3.6c-3.9,4-8.3,7.5-13.5,9.8c-6.2,2.7-12.9,2.2-19.3,1.1
	c-9.3-1.5-16.7-6.3-21.9-14.2c-1.6-2.4-2.8-5.2-4.1-7.8c-0.7-1.5-1.4-2.1-3.1-1.2c-6.2,3.1-12.3,6.4-18.7,9c-7.1,3-14.6,4-22.1,1.9
	c-7.3-2-13-6.8-17.6-12.7C380.3,332.5,379,330.9,377.1,328.4z M588.4,299.1c-0.1-1-0.1-2-0.2-3c-0.9-5.8-6.7-8.4-11.4-4.9
	c-2.1,1.6-4,3.6-5.5,5.9c-4.8,7.4-7,15.8-9.2,24.3c-0.5,2.1-0.9,4.3-0.9,6.5c0.1,4,2.5,5.2,5.8,3c7-4.5,12.2-10.8,16.6-17.8
	C586.3,308.8,588.5,304.3,588.4,299.1z M312.7,303.2c0.1-4-0.9-7.7-3.8-10.6c-1.6-1.6-3.7-2.3-6-1.6c-2.9,0.9-4.4,3-4.6,6.5
	c-0.4,6.8,2.5,12.7,5.5,18.4c1.5,3,3,2.9,5,0.1C311.5,312.2,312.6,307.8,312.7,303.2z M243.3,301.9c-0.7-2.5-1.2-5-2.3-7.4
	c-1.4-2.9-4.9-4.3-7.9-3.5c-3.3,0.9-4.6,2.4-4.2,6.4c0.3,3.5,1.1,7,2,10.4c0.7,2.5,1.7,5,3,7.2c1.7,3.1,3.4,3.1,5.1,0.1
	C241.2,311.2,243,306.9,243.3,301.9z"/>
</svg>
